<svg version="1.1" id="Layer_1" xmlns="http://www.w3.org/2000/svg" x="0" y="0" viewBox="0 0 376 368" style="enable-background:new 0 0 376 368" xml:space="preserve"><style>.st0{fill-rule:evenodd;clip-rule:evenodd;fill:#fff}</style><path class="st0" d="M27.2 4.8c-.1-.4-.6-.6-.9-.4-.4.1-.6.6-.4.9.1.4.6.6.9.4.4-.1.6-.5.4-.9" transform="matrix(1 0 0 -1 0 183)"/><path class="st0" d="M25.4 5.7c.4-.1.5-.6.4-.9-.1-.4-.6-.6-.9-.4-.4.1-.5.6-.4.9.1.4.5.6.9.4m1.2-4c.1.4.6.6.9.4.4-.1.5-.6.4-.9-.1-.4-.6-.6-.9-.4-.4.1-.5.5-.4.9m-4.6.5c-.4.1-.5.6-.4.9.1.4.6.6.9.4.4-.1.5-.6.4-.9-.1-.3-.5-.5-.9-.4M37.8.8c-.4.1-.6.6-.4.9.1.4.6.6.9.4.4-.1.6-.6.4-.9-.1-.4-.6-.6-.9-.4m-16 7.1c.4-.1.5-.6.4-.9-.1-.4-.6-.6-.9-.4-.4.1-.5.6-.4.9.1.4.5.5.9.4M29.9.1c-.4.1-.6.6-.4.9.1.4.6.6.9.4.4-.1.5-.6.4-.9-.1-.4-.6-.6-.9-.4m11 1.1c-.1-.4-.6-.6-.9-.4-.4.1-.5.6-.4.9.1.4.6.6.9.4.3-.1.5-.5.4-.9M33 2.6c-.1-.4-.6-.6-.9-.4-.4.1-.5.6-.4.9s.6.6.9.4c.3-.1.5-.5.4-.9m4.8 3.9c-.4.1-.5.6-.4.9.1.4.6.6.9.4.4-.1.5-.6.4-.9-.1-.3-.6-.5-.9-.4M27 10.2c-.4.1-.5.6-.4.9.1.4.6.6.9.4.4-.1.5-.6.4-.9-.1-.4-.5-.6-.9-.4M6.9 20.3c-.4.1-.6.6-.4.9.1.4.6.6.9.4.4-.1.6-.6.4-.9-.1-.4-.5-.6-.9-.4" transform="matrix(1 0 0 -1 0 183)"/><g transform="matrix(1 0 0 -1 59.565 181.557)"><defs><filter id="Adobe_OpacityMaskFilter" filterUnits="userSpaceOnUse" x="0" y="-1.4" width="1.4" height="1.4"><feColorMatrix values="1 0 0 0 0 0 1 0 0 0 0 0 1 0 0 0 0 0 1 0"/></filter></defs><mask maskUnits="userSpaceOnUse" x="0" y="-1.4" width="1.4" height="1.4" id="group-b_00000006696079062472287550000012414186173561422755_"><g style="filter:url(#Adobe_OpacityMaskFilter)"><path id="group-a_00000060740875337046221960000011030716664334197917_" class="st0" d="M0 0h1.4v1.4H0z"/></g></mask><path d="M.5.1C.1.2-.1.6.1 1c.1.3.5.5.9.4.4-.1.5-.6.4-.9S.8-.1.5.1" style="mask:url(#group-b_00000006696079062472287550000012414186173561422755_);fill-rule:evenodd;clip-rule:evenodd;fill:#fff"/></g><path class="st0" d="M14.1 17.4c-.4.1-.5.6-.4.9.1.4.6.6.9.4.4-.1.6-.6.4-.9-.1-.4-.5-.6-.9-.4m38.7-8c-.4.1-.5.6-.4.9.1.4.6.5.9.4.4-.1.5-.6.4-.9-.1-.3-.5-.5-.9-.4m-29.9.4c-.1-.4-.6-.6-.9-.4-.4.1-.5.6-.4.9.1.4.6.6.9.4.4-.1.6-.5.4-.9m14.9 5.4c-.4.1-.5.6-.4.9.1.4.6.6.9.4.4-.1.5-.6.4-.9-.1-.4-.6-.5-.9-.4m-6.3-6.8c-.1-.4-.5-.6-.9-.4-.4.1-.5.6-.4.9.1.4.6.6.9.4.4-.1.6-.5.4-.9M19.1 23.9c-.4.1-.5.6-.4.9.1.4.6.6.9.4s.5-.6.4-.9c-.1-.4-.5-.6-.9-.4M45.7.8c-.4.1-.5.6-.4.9.1.4.6.5.9.4s.5-.6.4-.9c-.1-.4-.6-.6-.9-.4M6.9 23.9c-.4.1-.5.6-.4.9.1.4.6.6.9.4.4-.1.5-.6.4-.9-.1-.4-.5-.6-.9-.4M35.6 5.1c-.4.1-.5.6-.4.9.1.4.6.6.9.4.4-.1.6-.6.4-.9-.1-.4-.5-.5-.9-.4M4.3 24.3c-.1-.4-.6-.6-.9-.4-.4.1-.6.5-.5.9.1.4.6.6.9.4s.6-.6.5-.9M42.8 6.6c-.4.1-.5.6-.4.9.1.3.6.5.9.4.4-.1.5-.6.4-.9-.1-.4-.5-.6-.9-.4M24.3 12c-.1-.4-.6-.6-.9-.4-.4.1-.6.6-.4.9.1.4.6.6.9.4.4-.1.6-.5.4-.9m9.2 6.8c-.4.1-.5.6-.4.9.1.4.6.6.9.4s.5-.6.4-.9c-.1-.3-.6-.5-.9-.4m2.8-8.6c-.4.1-.5.6-.4.9.1.4.6.6.9.4.4-.1.6-.6.4-.9-.1-.4-.5-.6-.9-.4m-30.1 18c-.4.1-.5.6-.4.9.1.4.6.6.9.4.4-.1.5-.6.4-.9-.1-.4-.5-.6-.9-.4M56.4 3c-.4.1-.5.6-.4.9.1.4.6.5.9.4.4-.1.5-.6.4-.9-.1-.4-.5-.6-.9-.4M14.8 21.7c-.4.1-.5.6-.4.9.1.4.6.6.9.4s.5-.6.4-.9c-.1-.4-.5-.5-.9-.4M53.6 2.9c-.4.1-.5.6-.4.9.1.4.6.5.9.4.4-.1.5-.6.4-.9-.2-.3-.6-.5-.9-.4m5.7 1.5c-.4.1-.5.6-.4.9.1.4.6.5.9.4.4-.1.5-.6.4-.9-.1-.4-.5-.5-.9-.4M15 14.2c-.1-.4-.6-.6-.9-.4-.4.1-.6.6-.4.9.1.4.6.6.9.4.4-.1.6-.6.4-.9m10.6-.4c-.4.1-.6.6-.4.9.1.4.6.6.9.4.4-.1.6-.6.4-.9-.1-.4-.6-.6-.9-.4m-13.5 1.1c-.1-.4-.6-.6-.9-.4-.4.1-.6.6-.4.9.1.4.6.6.9.4.4-.1.6-.5.4-.9m-9.7 6c.4-.1.5-.6.4-.9-.1-.4-.6-.6-.9-.4-.4.1-.6.6-.4.9.1.3.5.5.9.4" transform="matrix(1 0 0 -1 0 183)"/><g transform="matrix(1 0 0 -1 58.13 183)"><defs><filter id="Adobe_OpacityMaskFilter_00000169530771363241879280000000087524963552294075_" filterUnits="userSpaceOnUse" x="0" y="-1.4" width="1.4" height="1.4"><feColorMatrix values="1 0 0 0 0 0 1 0 0 0 0 0 1 0 0 0 0 0 1 0"/></filter></defs><mask maskUnits="userSpaceOnUse" x="0" y="-1.4" width="1.4" height="1.4" id="group-d_00000122681336556226983830000013453225504636897449_"><g style="filter:url(#Adobe_OpacityMaskFilter_00000169530771363241879280000000087524963552294075_)"><path id="group-c_00000025414399138855610350000001319103858910567867_" class="st0" d="M0 0h1.4v1.4H0z"/></g></mask><path d="M1 1.4c.4-.1.5-.6.4-.9C1.2.1.8-.1.5.1S-.1.6.1 1c.1.3.5.5.9.4" style="mask:url(#group-d_00000122681336556226983830000013453225504636897449_);fill-rule:evenodd;clip-rule:evenodd;fill:#fff"/></g><path class="st0" d="M32 11.6c-.4.1-.6.6-.4.9.1.4.6.6.9.4.4-.1.6-.6.4-.9-.1-.4-.5-.5-.9-.4M55.7.8c-.4.1-.5.6-.4.9.1.4.6.5.9.4.4-.1.5-.6.4-.9-.1-.4-.5-.6-.9-.4M22 14.5c-.4.1-.6.6-.4.9.1.4.6.6.9.4.4-.1.6-.6.4-.9-.1-.4-.5-.6-.9-.4m-5.8-2.9c-.4.1-.6.6-.4.9.1.4.6.6.9.4.4-.1.6-.6.4-.9-.1-.4-.5-.5-.9-.4m21.5 53.5c-.3-.1-.7-.1-.9.2-.2.3-.1.7.2.9.3.2.7.1.9-.2.1-.3 0-.7-.2-.9m-10.9-8.4c-.2.3-.1.7.2.9.3.2.7.1.9-.2.2-.3.1-.7-.2-.9-.4-.2-.8-.1-.9.2M37 61.1c.3.2.7.1.9-.2.2-.3.1-.7-.2-.9-.3-.2-.7-.1-.9.2-.2.4-.1.8.2.9m-4.4-4.6c-.3-.2-.7-.1-.9.2-.2.3-.1.7.2.9.3.2.7.1.9-.2.2-.3.1-.7-.2-.9" transform="matrix(1 0 0 -1 0 183)"/><g transform="matrix(1 0 0 -1 0 146.918)"><defs><filter id="Adobe_OpacityMaskFilter_00000049937354183982402590000007235738627195422337_" filterUnits="userSpaceOnUse" x=".1" y="-1.3" width="1.2" height="1.2"><feColorMatrix values="1 0 0 0 0 0 1 0 0 0 0 0 1 0 0 0 0 0 1 0"/></filter></defs><mask maskUnits="userSpaceOnUse" x=".1" y="-1.3" width="1.2" height="1.2" id="group-f_00000106833443793863565050000004772314111627332525_"><g style="filter:url(#Adobe_OpacityMaskFilter_00000049937354183982402590000007235738627195422337_)"><path id="group-e_00000047048642496656509170000018292285194067680154_" class="st0" d="M.1 0h1.3v1.4H.1z"/></g></mask><path d="M.3 1.2c.3.2.7.1.8-.2.2-.2.2-.6-.1-.8C.7 0 .3.1.2.4c-.2.3-.1.6.1.8" style="mask:url(#group-f_00000106833443793863565050000004772314111627332525_);fill-rule:evenodd;clip-rule:evenodd;fill:#fff"/></g><path class="st0" d="M39.8 62.3c-.3-.2-.7-.1-.9.2-.2.3-.1.7.2.9.3.2.7.1.9-.2.2-.4.1-.8-.2-.9m-20-10.6c.3.2.7.1.8-.2.2-.3.1-.7-.2-.8-.3-.2-.7-.1-.8.2-.2.3-.1.7.2.8m10 9.1c-.3-.2-.7-.1-.9.2-.2.3-.1.7.2.9.3.2.7.1.9-.2.1-.3.1-.7-.2-.9m-5.1-5.7c-.3-.2-.7-.1-.9.2-.2.3-.1.7.2.9.3.2.7.1.9-.2.2-.4.1-.8-.2-.9m18.7 11.8c.3.2.7.1.9-.2.2-.3.1-.7-.2-.9-.3-.2-.7-.1-.9.2-.1.3-.1.7.2.9m-2.8-13.7c.3.2.7.1.9-.2.2-.3.1-.7-.2-.9-.3-.2-.7-.1-.9.2-.2.3-.1.7.2.9m7.1 15.9c.3.2.7.1.9-.2.2-.3.1-.7-.2-.9-.3-.2-.7-.1-.9.2-.1.3-.1.7.2.9M26 51.6c-.2.3-.1.7.2.9.3.2.7.1.9-.2.2-.3.1-.7-.2-.9-.3-.1-.7-.1-.9.2m-3.4 4.9c-.3-.2-.7-.1-.8.2-.2.3-.1.7.2.9.3.2.7.1.9-.2 0-.3 0-.7-.3-.9m.2-2c.2-.3.1-.7-.2-.8-.3-.2-.7-.1-.8.2-.2.3-.1.7.2.8.2.1.6 0 .8-.2m-11-1.6c-.3-.2-.7-.1-.8.2-.2.3-.1.6.2.8.3.2.7.1.8-.2.2-.3.1-.6-.2-.8m7.2.7c-.3-.2-.7-.1-.8.2-.2.3-.1.7.2.8.3.2.7.1.8-.2.2-.2.1-.6-.2-.8M8.9 52.2c-.3-.2-.6-.1-.8.2-.2.2-.1.6.2.8.3.2.6.1.8-.2s.1-.6-.2-.8m20.9 6.1c.3.2.7.1.9-.2.2-.3.1-.7-.2-.9-.3-.2-.7-.1-.9.2-.2.3-.1.7.2.9m-16.7-8.8c-.2.3-.1.6.2.8.3.2.6.1.8-.2.2-.3.1-.6-.2-.8-.2-.2-.6-.1-.8.2m16 4.4c.3.2.7.1.9-.2.2-.3.1-.7-.2-.9-.3-.2-.7-.1-.9.2-.2.4-.1.7.2.9M3.3 33.7c.3.2.6.1.8-.2.2-.3.1-.6-.2-.8-.3-.2-.6-.1-.8.2-.2.2-.1.6.2.8m17.9 16.6c.3.2.7.1.8-.2.2-.3.1-.7-.2-.8-.3-.2-.7-.1-.8.2-.2.2-.1.6.2.8M4 38c.3.2.6.1.8-.2.2-.2.1-.6-.2-.8-.3-.2-.6-.1-.8.2-.2.3-.1.6.2.8m22.2 7.3c.3.2.7.1.9-.2.2-.3.1-.7-.2-.9-.3-.2-.7-.1-.9.2-.1.3-.1.7.2.9M9 40.2c.3.2.6.1.8-.2.2-.3.1-.6-.2-.8-.2-.2-.6-.1-.8.2-.1.2-.1.6.2.8m20.1 5.1c.3.2.7.1.9-.2.2-.3.1-.7-.2-.9-.3-.2-.7-.1-.9.2-.2.3-.1.7.2.9m-7.2-5.1c.3.2.6.1.8-.2.2-.3.1-.6-.2-.8-.3-.2-.6-.1-.8.2-.1.2-.1.6.2.8m7.9 9.4c.3.2.7.1.9-.2.2-.3.1-.7-.2-.9-.3-.2-.7-.1-.9.2-.2.3-.1.7.2.9m-2.3-2.3c-.2.3-.1.7.2.9.3.2.7.1.9-.2.2-.3.1-.7-.2-.9-.4-.2-.7-.1-.9.2m-5.6.8c.3.2.7.1.8-.2.2-.3.1-.7-.2-.8-.3-.2-.7-.1-.8.2-.1.3-.1.7.2.8M16.8 63c-.3-.2-.7-.1-.8.2-.2.3-.1.7.2.8.3.2.7.1.8-.2.2-.2.1-.6-.2-.8m-6.4-13.4c.3.2.6.1.8-.2.2-.3.1-.6-.2-.8-.3-.2-.6-.1-.8.2-.1.2 0 .6.2.8m-1.5-1.7c-.3-.2-.6-.1-.8.2-.2.3-.1.6.2.8.3.2.6.1.8-.2.2-.3.1-.7-.2-.8" transform="matrix(1 0 0 -1 0 183)"/><g transform="matrix(1 0 0 -1 40.188 114.443)"><defs><filter id="Adobe_OpacityMaskFilter_00000096760556042453334100000016730037785081438394_" filterUnits="userSpaceOnUse" x=".1" y="-1.4" width="1.3" height="1.3"><feColorMatrix values="1 0 0 0 0 0 1 0 0 0 0 0 1 0 0 0 0 0 1 0"/></filter></defs><mask maskUnits="userSpaceOnUse" x=".1" y="-1.4" width="1.3" height="1.3" id="group-h_00000162340527238827441270000014680254101613938355_"><g style="filter:url(#Adobe_OpacityMaskFilter_00000096760556042453334100000016730037785081438394_)"><path id="group-g_00000155145658782889360550000007602584317238935174_" class="st0" d="M0 0h1.4v1.4H0z"/></g></mask><path d="M.4 1.3c.3.2.7.1.9-.2s.1-.7-.2-.9C.8.1.4.1.2.4c-.2.3-.1.7.2.9" style="mask:url(#group-h_00000162340527238827441270000014680254101613938355_);fill-rule:evenodd;clip-rule:evenodd;fill:#fff"/></g><path class="st0" d="M17.6 50.7c-.3-.2-.7-.1-.8.2-.2.3-.1.7.2.8.3.2.7.1.8-.2.1-.2 0-.6-.2-.8m6.5 3.2c.3.2.7.1.9-.2.2-.3.1-.7-.2-.9-.3-.2-.7-.1-.9.2-.2.4-.1.7.2.9m9.3.7c.3.2.7.1.9-.2.2-.3.1-.7-.2-.9-.3-.2-.7-.1-.9.2-.2.4-.1.8.2.9m5.5 6.4c-.2.3-.1.7.2.9.3.2.7.1.9-.2.2-.3.1-.7-.2-.9-.3-.2-.7-.1-.9.2m-4.8-7.8c.3.2.7.1.9-.2.2-.3.1-.7-.2-.9-.3-.2-.7-.1-.9.2-.2.3-.1.7.2.9m-9.3-6.5c.3.2.7.1.8-.2.2-.3.1-.7-.2-.9-.3-.2-.7-.1-.8.2-.2.3-.1.7.2.9m19.4 13.7c.3.2.7.1.9-.2.2-.3.1-.7-.2-.9-.3-.2-.7-.1-.9.2-.2.3-.1.7.2.9M26.9 50c-.3-.2-.7-.1-.9.2-.2.3-.1.7.2.9.3.2.7.1.9-.2.2-.3.1-.7-.2-.9m-3.7.9c-.2.3-.1.7.2.9.3.2.7.1.9-.2.2-.3.1-.7-.2-.8-.4-.3-.7-.2-.9.1M2.5 39.5c.3.2.6.1.8-.2.2-.3.1-.6-.2-.8-.3-.2-.6-.1-.8.2-.1.2 0 .6.2.8m31.6 18.8c.3.2.7.1.9-.2.2-.3.1-.7-.2-.9-.3-.2-.7-.1-.9.2-.2.3-.1.7.2.9M2.4 35c-.2.3-.1.6.2.8.2.2.6.2.8-.1.2-.3.1-.6-.2-.8-.3-.2-.6-.1-.8.1" transform="matrix(1 0 0 -1 0 183)"/><g><path class="st0" d="M8 12.4 9.8 10H8.3c-.1 0-.1-.1-.1-.1v-.1l2-2.1h-1c-.1 0-.1-.1-.1-.1v-.1l2.4-3c.1-.1.3-.2.4 0l2.4 3v.2h-1.1l2 2.1v.2h-1.6l1.9 2.4c.1.1 0 .2 0 .2H12.2v2c0 .2-.1.3-.3.3h-.6c-.2 0-.3-.1-.3-.3v-2H8.1c-.1 0-.2-.1-.2-.2H8m38.7 5.7 2-2.4h-1.6c-.1 0-.1-.1-.1-.1v-.1l2.2-2.1h-1.1c-.1 0-.1-.1-.2-.1v-.1l2.6-3c.1-.1.3-.2.5 0l2.6 3c.1.1 0 .2 0 .2H52.4l2.2 2.1v.2H52.9l2 2.4c.1.1 0 .2 0 .2h-3.5v2c0 .2-.2.3-.3.3h-.7c-.2 0-.3-.1-.3-.3v-2h-3.4c-.1 0-.2-.1-.2-.2.2.1.2 0 .2 0m16.5-9.3 1.9-2.4h-1.5c-.1 0-.1-.1-.1-.1v-.1l2-2.1h-1c-.1 0-.1-.1-.1-.1v-.1l2.4-3c.1-.1.3-.2.4 0l2.4 3v.2h-1.1l2 2.1v.2h-1.6l1.9 2.4c.1.1 0 .2 0 .2H67.5v2c0 .2-.1.3-.3.3h-.6c-.2 0-.3-.1-.3-.3V9h-3.2c-.1 0-.2-.1-.2-.2.3.1.3 0 .3 0m-37.3 8.6 1.9-2.4h-1.5c-.1 0-.1-.1-.1-.1v-.1l2-2.1h-1c-.1 0-.1-.1-.1-.1v-.1l2.4-3c.1-.1.3-.2.4 0l2.4 3v.2h-1.1l2 2.1v.2h-1.6l1.9 2.4c.1.1 0 .2 0 .2H30.2v2c0 .2-.1.3-.3.3h-.6c-.2 0-.3-.1-.3-.3v-2h-3c-.1 0-.2-.1-.2-.2h.1m10.8-9.3 1.9-2.4H37c-.1 0-.1-.1-.1-.1v-.1l2-2.1h-1c-.1 0-.1-.1-.1-.1v-.1l2.4-3c.1-.1.3-.2.4 0l2.4 3v.2h-1.1l2 2.1v.2h-1.6l1.9 2.4c.1.1 0 .2 0 .2H40.9v2c0 .2-.1.3-.3.3H40c-.2 0-.3-.1-.3-.3v-2h-3.2c-.1 0-.2-.1-.2-.2.3.1.3 0 .4 0m39.5 35 1.9-2.4h-1.5c-.1 0-.1-.1-.1-.1v-.1l2-2.1h-1c-.1 0-.1-.1-.1-.1v-.1l2.4-3c.1-.1.3-.2.4 0l2.4 3v.2h-1.1l2 2.1v.2h-1.6l1.9 2.4c.1.1 0 .2 0 .2H80.5v2c0 .2-.1.3-.3.3h-.6c-.2 0-.3-.1-.3-.3v-2h-3.2c-.1 0-.2-.1-.2-.2.2.1.2 0 .3 0M34.4 28.5c.4.1.7-.2.8-.6.1-.4-.2-.7-.6-.8-.4-.1-.7.2-.8.6-.1.4.2.8.6.8m5.7 3.6c.4.1.7-.2.8-.6.1-.4-.2-.7-.6-.8s-.7.2-.8.6c0 .4.2.7.6.8m-14.3 3.7c.1-.4-.2-.7-.6-.8-.4-.1-.7.2-.8.6-.1.4.2.7.6.8.4 0 .8-.2.8-.6m18.7 5c.1-.4-.2-.7-.6-.8-.4-.1-.7.2-.8.6-.1.4.2.7.6.8s.7-.2.8-.6m4.4-7.9c-.4-.1-.7.2-.8.6-.1.4.2.7.6.8.4.1.7-.2.8-.6s-.2-.7-.6-.8m-20.3-3.7c.4.1.7-.2.8-.6.1-.4-.2-.7-.6-.8-.4-.1-.7.2-.8.6s.3.8.6.8m16.5 5c.4.1.7-.2.8-.6.1-.4-.2-.7-.6-.8-.4-.1-.7.2-.8.6 0 .4.3.8.6.8m-13.5-.5c.1-.4-.2-.7-.6-.8-.4-.1-.7.2-.8.6-.1.4.2.7.6.8.4 0 .7-.2.8-.6m18.6 3.4c.4.1.7-.2.8-.6.1-.4-.2-.7-.6-.8-.4-.1-.7.2-.8.6 0 .4.2.7.6.8m-27.3-1.4c.4.1.7-.2.8-.6.1-.4-.2-.7-.6-.8-.4-.1-.7.2-.8.6 0 .4.2.7.6.8m32.5 2.2c-.4-.1-.7.2-.8.6-.1.4.2.7.6.8.4.1.7-.2.8-.5 0-.5-.2-.8-.6-.9m-29.5-4.4c-.1.4.2.7.6.8.4.1.7-.2.8-.6.1-.4-.2-.7-.6-.8-.4-.1-.7.2-.8.6m27.4 5.1c-.4-.1-.7.2-.8.6-.1.4.2.7.6.8.4.1.7-.2.8-.5 0-.5-.3-.8-.6-.9m12.2 2.2c-.4-.1-.7.2-.8.5-.1.4.2.7.6.8.4.1.7-.2.8-.5 0-.4-.3-.8-.6-.8m-34-9.4c.4.1.7-.2.8-.6.1-.4-.2-.7-.6-.8-.4-.1-.7.2-.8.6 0 .4.2.7.6.8m-3.4 1.5c-.4-.1-.7.2-.8.6-.1.4.2.7.6.8.4.1.7-.2.8-.6.1-.4-.2-.7-.6-.8m-.9-4.4c.4.1.7-.2.8-.6.1-.4-.2-.7-.6-.8-.4-.1-.7.2-.8.6 0 .4.2.8.6.8m25.1 8.6c.4.1.7-.2.8-.6.1-.4-.2-.7-.6-.8-.4-.1-.7.2-.8.6 0 .4.3.7.6.8m-5.5-6.3c-.4-.1-.7.2-.8.6-.1.4.2.7.6.8.4.1.7-.2.8-.6 0-.4-.2-.8-.6-.8m7 3.4c.4.1.7-.2.8-.6.1-.4-.2-.7-.6-.8-.4-.1-.7.2-.8.6-.1.4.2.8.6.8m-5.1 6.5c.4.1.7-.2.8-.6.1-.4-.2-.7-.6-.8-.4-.1-.7.2-.8.6 0 .4.3.7.6.8m.2-9.9c-.4-.1-.7.2-.8.6-.1.4.2.7.6.8.4.1.7-.2.8-.6.1-.4-.2-.8-.6-.8m-5.9 5c.1-.4-.2-.7-.6-.8-.4-.1-.7.2-.8.6-.1.4.2.7.6.8.4 0 .8-.2.8-.6m11.7-.7c-.4-.1-.7.2-.8.6-.1.4.2.7.6.8.4.1.7-.2.8-.6 0-.4-.2-.8-.6-.8m-24.6 1.4c.1-.4-.2-.7-.6-.8-.4-.1-.7.2-.8.6s.2.7.6.8c.4.1.8-.2.8-.6m32.5 4.3c-.4-.1-.7.2-.8.5-.1.4.2.7.6.8.4.1.7-.2.8-.5 0-.4-.3-.8-.6-.8m-12.2 2.1c-.4-.1-.7.2-.8.5s.2.7.6.8c.4.1.7-.2.8-.5 0-.4-.3-.7-.6-.8m-5.8-7.3c-.1.4.2.7.6.8.4.1.7-.2.8-.6.1-.4-.2-.7-.6-.8-.4 0-.8.2-.8.6m-22.2 3.7c-.4-.1-.7.2-.8.6-.1.4.2.7.6.8.4.1.7-.2.8-.6 0-.4-.2-.7-.6-.8M43.8 38c.1-.4-.2-.7-.6-.8-.4-.1-.7.2-.8.6-.1.4.2.7.6.8.4 0 .7-.3.8-.6m-39.4-.1c-.4-.1-.7.2-.8.6-.1.4.2.7.6.8.4 0 .7-.3.8-.6.1-.4-.2-.7-.6-.8M10.9 39.3c-.4-.1-.7.2-.8.6-.1.4.2.7.6.8.4.1.7-.2.8-.6 0-.4-.2-.7-.6-.8" transform="translate(291.98 317)"/><path class="st0" d="M41 48.7c-.4-.1-.7.2-.8.5-.1.4.2.7.5.7.4.1.7-.2.8-.5.1-.3-.1-.7-.5-.7M20.1 37.2c.1-.4-.2-.7-.6-.8-.4-.1-.7.2-.8.6-.1.4.2.7.6.8.4.1.7-.2.8-.6m8 10c-.4-.1-.7.2-.8.6-.1.4.2.7.6.8.4.1.7-.2.8-.6 0-.4-.2-.7-.6-.8m-1.6-7.1c.1-.4-.2-.7-.6-.8-.4-.1-.7.2-.8.6-.1.4.2.7.6.8.4 0 .8-.2.8-.6m-14.9 5c-.4-.1-.7.2-.8.6-.1.4.2.7.6.8.4.1.7-.2.8-.6 0-.4-.2-.8-.6-.8m-7.9-5c-.4-.1-.7.1-.8.5-.1.4.2.7.6.8.4.1.7-.2.8-.6 0-.3-.2-.7-.6-.7m-2.3 0c.1-.4-.2-.7-.6-.8-.4-.1-.7.2-.8.6-.1.4.2.7.6.8.4 0 .7-.2.8-.6m33.2 2.8c-.4-.1-.7.2-.8.6-.1.4.2.7.6.8.4.1.7-.2.8-.6 0-.4-.2-.7-.6-.8m-14.5-3.5c.1-.4-.2-.7-.6-.8-.4-.1-.7.2-.8.6-.1.4.2.7.6.8.4 0 .7-.2.8-.6m3 8.5c-.4-.1-.7.2-.8.6s.2.7.6.8c.4.1.7-.2.8-.6 0-.4-.2-.7-.6-.8m5.7-5c-.4-.1-.7.2-.8.6-.1.4.2.7.6.8.4.1.7-.2.8-.6.1-.4-.2-.7-.6-.8m-27.2 0c-.4-.1-.7.2-.8.6-.1.4.2.7.6.8.4.1.7-.2.8-.6 0-.4-.3-.7-.6-.8m44.5 2.9c-.4-.1-.7.2-.8.5-.1.4.2.7.6.7.4.1.7-.2.8-.5 0-.3-.3-.7-.6-.7m-35.9-3.6c-.4-.1-.7.2-.8.6-.1.4.2.7.6.8.4.1.7-.2.8-.6 0-.4-.3-.7-.6-.8m49.5 2.9c-.3-.1-.7.2-.7.5-.1.4.2.7.6.7.4.1.7-.2.8-.5-.1-.3-.3-.7-.7-.7m-15.8-.7c-.4-.1-.7.2-.8.5-.1.4.2.7.6.7.4.1.7-.2.8-.5 0-.4-.2-.7-.6-.7m3.6 3.5c-.4-.1-.7.2-.8.5-.1.4.2.7.6.7.4.1.7-.2.8-.5 0-.3-.2-.6-.6-.7m4.9-5.7c.1-.4-.2-.7-.6-.8-.4-.1-.7.2-.8.5-.1.4.2.7.6.8.4.1.7-.1.8-.5M23 38.7c.1-.4-.2-.7-.6-.8-.4-.1-.7.2-.8.6-.1.4.2.7.6.8.3 0 .7-.3.8-.6m29.5 1.9c-.1.4.2.7.6.8.4.1.7-.2.8-.5.1-.4-.2-.7-.6-.8-.4-.1-.8.2-.8.5m-39.6-3.4c.1-.4-.2-.7-.6-.8-.4-.1-.7.2-.8.6-.1.4.2.7.6.8.4.1.7-.2.8-.6m7.3 3.6c-.4-.1-.7.2-.8.6-.1.4.2.7.6.8.4.1.7-.2.8-.6.1-.4-.2-.8-.6-.8m27.3-2.2c-.4-.1-.7.2-.8.6-.1.4.2.7.6.8.4.1.7-.2.8-.6 0-.4-.2-.7-.6-.8m-36.8-2.1c.1-.4-.2-.7-.6-.8-.4-.1-.7.2-.8.6 0 .4.3.7.7.8.3.1.7-.2.7-.6M43 40.1c.1-.4-.2-.7-.6-.8-.4-.1-.7.2-.8.6-.1.4.2.7.6.8.4 0 .8-.2.8-.6m-41.7-3c.4.1.7-.2.8-.6.1-.4-.2-.7-.6-.8-.4-.1-.7.2-.8.6 0 .4.3.7.6.8m47.4 9.3c.4.1.7-.2.8-.5.1-.4-.2-.7-.6-.7-.4-.1-.7.2-.8.5 0 .3.3.6.6.7M26 42.2c-.4-.1-.7.2-.8.6-.1.4.2.7.6.8.4.1.7-.2.8-.6 0-.4-.3-.8-.6-.8m20.1 2.2c-.4-.1-.7.2-.8.5-.1.4.2.7.6.7s.7-.2.8-.5c0-.4-.3-.7-.6-.7m-18.7-5.1c-.4-.1-.7.2-.8.6-.1.4.2.7.6.8.4.1.7-.2.8-.6 0-.4-.2-.7-.6-.8m24.4 5.8c-.4-.1-.7.2-.8.5-.1.4.2.7.6.7.4.1.7-.2.8-.5 0-.3-.2-.7-.6-.7m-.9-5.9c.4.1.7-.2.8-.6.1-.4-.2-.7-.6-.8-.4-.1-.7.2-.8.6 0 .4.2.8.6.8m-33.5.8c-.4-.1-.7.2-.8.6-.1.4.2.7.6.8.4.1.7-.2.8-.6 0-.3-.3-.7-.6-.8m35.8 2.9c-.4-.1-.7.2-.8.5-.1.4.2.7.6.7.4.1.7-.2.8-.5.1-.3-.2-.6-.6-.7m-38.7-7.1c-.4-.1-.7.2-.8.6-.1.4.2.7.6.8.4.1.7-.2.8-.6 0-.4-.2-.8-.6-.8m17.9 3.7 1.9-2.4h-1.5c-.1 0-.1-.1-.1-.1v-.1l2-2.1h-1c-.1 0-.1-.1-.1-.1v-.1l2.4-3c.1-.1.3-.2.4 0l2.4 3v.2h-1.1l2 2.1v.2h-1.6l1.9 2.4c.1.1 0 .2 0 .2H36.7v2c0 .2-.1.3-.3.3H36c-.2 0-.3-.1-.3-.3v-2h-3.2c-.1 0-.2-.1-.2-.2 0 .1 0 .1.1 0m25.8-2.8 1.9-2.4h-1.5c-.1 0-.1-.1-.1-.1v-.1l2-2.1h-1c-.1 0-.1-.1-.1-.1v-.1l2.4-3c.1-.1.3-.2.4 0l2.4 3v.2h-1.1l2 2.1v.2h-1.6l1.9 2.4c.1.1 0 .2 0 .2H62.5v2c0 .2-.1.3-.3.3h-.6c-.2 0-.3-.1-.3-.3v-2h-3.2c-.1 0-.2-.1-.2-.2h.3" transform="translate(291.98 317)"/></g><path class="st0" d="m271 83.1 1.9-2.7h-1.5c-.1 0-.1-.1-.1-.1v-.1l2.1-2.4h-1c-.1 0-.1-.1-.1-.2v-.1l2.5-3.3c.1-.2.3-.2.5 0l2.5 3.3v.2h-1.1l2.1 2.4v.2h-1.6l1.9 2.7c.1.1 0 .2 0 .3H275.8v2.3c0 .2-.1.4-.3.4h-.6c-.2 0-.3-.2-.3-.4v-2.3h-3.2c-.1 0-.2-.1-.2-.2h-.2M218.2 0l-.6 1-.5-1-.4.2.7 1.2-5.6 10H210v.6h15v-.6h-1.5L218 1.5l.7-1.2-.5-.3zm-.6 7.2 2.4 4.3h-4.8l2.4-4.3zM334.2 62l-.6 1-.5-1-.4.2.7 1.2-5.6 10H326v.6h15v-.6h-1.5l-5.5-9.9.7-1.2-.5-.3zm-.6 7.2 2.4 4.3h-4.8l2.4-4.3z"/></svg>