<svg version="1.1" id="Layer_1" xmlns="http://www.w3.org/2000/svg" x="0" y="0" viewBox="0 0 385 400" style="enable-background:new 0 0 385 400" xml:space="preserve"><style>.st0{fill-rule:evenodd;clip-rule:evenodd;fill:#fff}</style><path class="st0" d="m8.9 11.8 1.9-2.4H9.3c-.1 0-.1-.1-.1-.1v-.1l2-2.1h-1c-.1 0-.1-.1-.1-.1v-.1l2.4-3c.1-.1.3-.2.4 0l2.4 3v.2h-1.1l2 2.1v.2h-1.6l1.9 2.4c.1.1 0 .2 0 .2H13.2v2c0 .2-.1.3-.3.3h-.6c-.2 0-.3-.1-.3-.3v-2H9.1c-.1 0-.2-.1-.2-.2m38.8 5.7 2-2.4h-1.6c-.1 0-.1-.1-.1-.2v-.1l2.2-2.1h-1.1c-.1 0-.1-.1-.2-.1v-.1l2.6-3c.1-.1.3-.2.5 0l2.6 3c.1.1 0 .2 0 .2H53.4l2.2 2.1v.2H53.9l2 2.4c.1.1 0 .2 0 .2h-3.5v2c0 .2-.2.3-.3.3h-.7c-.2 0-.3-.1-.3-.3v-2h-3.4c-.1 0-.2-.1-.2-.2l.2.1m16.5-9.3 1.9-2.4h-1.5c-.1 0-.1-.1-.1-.1v-.1l2-2.1h-1c-.1 0-.1-.1-.1-.1v-.1l2.4-3c.1-.1.3-.2.4 0l2.4 3v.2h-1.1l2 2.1v.2h-1.6L72 8.2c.1.1 0 .2 0 .2H68.7v2c0 .2-.1.3-.3.3h-.6c-.2 0-.3-.1-.3-.3v-2h-3.2c-.1 0-.2-.1-.2-.2h.1m-37.3 8.6 1.9-2.4h-1.5c-.1 0-.1-.1-.1-.1v-.1l2-2.1h-1c-.1 0-.1-.1-.1-.1v-.1l2.4-3c.1-.1.3-.2.4 0l2.4 3v.2h-1.1l2 2.1v.2h-1.6l1.9 2.4c.1.1 0 .2 0 .2H31.2v2c0 .2-.1.3-.3.3h-.6c-.2 0-.3-.1-.3-.3v-2h-3c-.1 0-.2-.1-.2-.2h.1m10.8-9.3 1.9-2.4H38c-.1 0-.1-.1-.1-.1v-.1l2-2.1h-1c-.1 0-.1-.1-.1-.1v-.1l2.4-3c.1-.1.3-.2.4 0l2.4 3v.2h-1.1l2 2.1v.2h-1.6l1.9 2.4c.1.1 0 .2 0 .2H41.9v2c0 .2-.1.3-.3.3H41c-.2 0-.3-.1-.3-.3v-2h-3.2c-.1 0-.2-.1-.2-.2h.4m39.4 35 1.9-2.4h-1.5c-.1 0-.1-.1-.1-.1v-.1l2-2.1h-1c-.1 0-.1-.1-.1-.1v-.1l2.4-3c.1-.1.3-.2.4 0l2.4 3v.2h-1.1l2 2.1v.2h-1.6l1.9 2.4c.1.1 0 .2 0 .2H81.4v2c0 .2-.1.3-.3.3h-.6c-.2 0-.3-.1-.3-.3v-2H77c-.1 0-.2-.1-.2-.2h.3M35.4 27.9c.4.1.7-.2.8-.6.1-.4-.2-.7-.6-.8-.4-.1-.7.2-.8.6-.1.4.2.7.6.8m5.7 3.6c.4.1.7-.2.8-.6.1-.4-.2-.7-.6-.8s-.7.2-.8.6c0 .4.2.7.6.8m-14.3 3.7c.1-.4-.2-.7-.6-.8-.4-.1-.7.2-.8.6-.1.4.2.7.6.8.4 0 .7-.2.8-.6m18.7 5c.1-.4-.2-.7-.6-.8-.4-.1-.7.2-.8.6-.1.4.2.7.6.8s.7-.3.8-.6m4.4-7.9c-.4-.1-.7.2-.8.6-.1.4.2.7.6.8.4.1.7-.2.8-.6s-.2-.8-.6-.8m-20.3-3.7c.4.1.7-.2.8-.6.1-.4-.2-.7-.6-.8-.4-.1-.7.2-.8.6s.2.8.6.8m16.5 5c.4.1.7-.2.8-.6.1-.4-.2-.7-.6-.8-.4-.1-.7.2-.8.6 0 .4.3.7.6.8M32.6 33c.1-.4-.2-.7-.6-.8-.4-.1-.7.2-.8.6-.1.4.2.7.6.8.3.1.7-.2.8-.6m18.6 3.5c.4.1.7-.2.8-.6.1-.4-.2-.7-.6-.8-.4-.1-.7.2-.8.6-.1.4.2.7.6.8M23.9 35c.4.1.7-.2.8-.6.1-.4-.2-.7-.6-.8-.4-.1-.7.2-.8.6-.1.4.2.8.6.8m32.5 2.3c-.4-.1-.7.2-.8.6-.1.4.2.7.6.8.4.1.7-.2.8-.5 0-.5-.3-.9-.6-.9m-29.5-4.5c-.1.4.2.7.6.8.4.1.7-.2.8-.6.1-.4-.2-.7-.6-.8-.4 0-.8.3-.8.6M54.2 38c-.4-.1-.7.2-.8.6-.1.4.2.7.6.8.4.1.7-.2.8-.5 0-.5-.2-.8-.6-.9m12.2 2.2c-.4-.1-.7.2-.8.5-.1.4.2.7.6.8.4.1.7-.2.8-.5 0-.5-.2-.8-.6-.8m-33.9-9.4c.4.1.7-.2.8-.6.1-.4-.2-.7-.6-.8-.4-.1-.7.2-.8.6-.1.4.2.7.6.8m-3.4 1.5c-.4-.1-.7.2-.8.6-.1.4.2.7.6.8.4.1.7-.2.8-.6 0-.4-.2-.8-.6-.8m-.9-4.4c.4.1.7-.2.8-.6.1-.4-.2-.7-.6-.8-.4-.1-.7.2-.8.6-.1.4.2.7.6.8m25.1 8.6c.4.1.7-.2.8-.6.1-.4-.2-.7-.6-.8-.4-.1-.7.2-.8.6 0 .4.2.7.6.8m-5.5-6.4c-.4-.1-.7.2-.8.6-.1.4.2.7.6.8.4.1.7-.2.8-.6 0-.4-.3-.7-.6-.8m6.9 3.5c.4.1.7-.2.8-.6.1-.4-.2-.7-.6-.8-.4-.1-.7.2-.8.6 0 .4.3.7.6.8m-5 6.4c.4.1.7-.2.8-.6.1-.4-.2-.7-.6-.8-.4-.1-.7.2-.8.6 0 .4.3.8.6.8m.2-9.9c-.4-.1-.7.2-.8.6-.1.4.2.7.6.8.4.1.7-.2.8-.6 0-.4-.2-.7-.6-.8M44 35.2c.1-.4-.2-.7-.6-.8-.4-.1-.7.2-.8.6-.1.4.2.7.6.8.4 0 .8-.2.8-.6m11.7-.8c-.4-.1-.7.2-.8.6-.1.4.2.7.6.8.4.1.7-.2.8-.6 0-.4-.3-.7-.6-.8m-24.6 1.5c.1-.4-.2-.7-.6-.8-.4-.1-.7.2-.8.6s.2.7.6.8c.4 0 .8-.2.8-.6m32.5 4.3c-.4-.1-.7.2-.8.5-.1.4.2.7.6.8.4.1.7-.2.8-.5 0-.5-.3-.8-.6-.8m-12.2 2.1c-.4-.1-.7.2-.8.5s.2.7.6.8c.4.1.7-.2.8-.5 0-.4-.3-.8-.6-.8M45.6 35c-.1.4.2.7.6.8.4.1.7-.2.8-.6.1-.4-.2-.7-.6-.8-.4 0-.8.2-.8.6m-22.2 3.7c-.4-.1-.7.2-.8.6-.1.4.2.7.6.8.4.1.7-.2.8-.6 0-.4-.3-.7-.6-.8m21.3-1.4c.1-.4-.2-.7-.6-.8-.4-.1-.7.2-.8.6-.1.4.2.7.6.8.4 0 .8-.2.8-.6m-39.3 0c-.4-.1-.7.2-.8.6-.1.4.2.7.6.8.4 0 .7-.3.8-.7 0-.3-.2-.7-.6-.7M11.9 38.7c-.4-.1-.7.2-.8.6-.1.3.2.7.6.7.4.1.7-.2.8-.6 0-.3-.3-.6-.6-.7M42 48c-.4-.1-.7.2-.8.5-.1.4.2.7.5.7.4.1.7-.2.8-.5.1-.3-.1-.6-.5-.7M21.1 36.6c.1-.4-.2-.7-.6-.8-.4-.1-.7.2-.8.6-.1.4.2.7.6.8.4 0 .7-.2.8-.6m8 10c-.4-.1-.7.2-.8.6-.1.4.2.7.6.8.4.1.7-.2.8-.6 0-.4-.2-.8-.6-.8m-1.6-7.1c.1-.4-.2-.7-.6-.8-.4-.1-.7.2-.8.6-.1.4.2.7.6.8.4 0 .8-.3.8-.6m-14.9 4.9c-.4-.1-.7.2-.8.6-.1.4.2.7.6.8.4.1.7-.2.8-.6 0-.4-.2-.7-.6-.8m-7.9-5c-.4 0-.7.2-.8.6-.1.4.2.7.6.8.4.1.7-.2.8-.6 0-.4-.2-.7-.6-.8m-2.3.1c.1-.4-.2-.7-.6-.8-.4-.1-.7.2-.8.6 0 .3.2.7.6.7.4.1.7-.2.8-.5m33.2 2.8c-.4-.1-.7.2-.8.6-.1.4.2.7.6.8.4.1.7-.2.8-.6 0-.4-.3-.8-.6-.8m-14.5-3.5c.1-.4-.2-.7-.6-.8-.4-.1-.7.2-.8.6-.1.4.2.7.6.8.4 0 .7-.3.8-.6m3 8.5c-.4-.1-.7.2-.8.6s.2.7.6.8c.4.1.7-.2.8-.6 0-.4-.3-.8-.6-.8m5.7-5c-.4-.1-.7.2-.8.6-.1.4.2.7.6.8.4.1.7-.2.8-.6 0-.4-.2-.8-.6-.8m-27.3 0c-.4-.1-.7.2-.8.6-.1.4.2.7.6.8.4 0 .7-.3.8-.7.1-.3-.2-.7-.6-.7m44.6 2.9c-.4-.1-.7.2-.8.5-.1.4.2.7.6.7.4.1.7-.2.8-.5 0-.4-.3-.7-.6-.7m-35.9-3.6c-.4-.1-.7.2-.8.6-.1.4.2.7.6.8.4.1.7-.2.8-.6 0-.4-.3-.8-.6-.8m49.5 2.8c-.4-.1-.7.2-.8.5-.1.4.2.7.6.7.4.1.7-.2.8-.5 0-.3-.2-.6-.6-.7m-15.8-.7c-.4-.1-.7.2-.8.5-.1.4.2.7.6.7.4.1.7-.2.8-.5 0-.3-.2-.6-.6-.7m3.6 3.6c-.4-.1-.7.2-.8.5-.1.4.2.7.6.7.4.1.7-.2.8-.5 0-.3-.3-.6-.6-.7m4.8-5.7c.1-.4-.2-.7-.6-.8-.4-.1-.7.2-.8.5-.1.4.2.7.6.8.5.1.8-.1.8-.5M23.9 38c.1-.4-.2-.7-.6-.8-.4-.1-.7.2-.8.6-.1.4.2.7.6.8.4.1.8-.2.8-.6m29.6 2c-.1.4.2.7.6.8.4.1.7-.2.8-.5.1-.4-.2-.7-.6-.8-.4-.1-.8.1-.8.5m-39.6-3.4c.1-.4-.2-.7-.6-.8s-.7.2-.8.6c-.1.4.2.7.6.8.4 0 .7-.2.8-.6m7.3 3.5c-.4-.1-.7.2-.8.6-.1.4.2.7.6.8.4.1.7-.2.8-.6 0-.4-.2-.7-.6-.8M48.5 38c-.4-.1-.7.2-.8.6-.1.4.2.7.6.8.4.1.7-.2.8-.6 0-.4-.2-.7-.6-.8m-36.8-2.1c.1-.4-.2-.7-.6-.8-.4-.1-.7.2-.8.6-.1.4.2.7.6.8.4 0 .8-.2.8-.6M44 39.5c.1-.4-.2-.7-.6-.8-.4-.1-.7.2-.8.6-.1.4.2.7.6.8.4 0 .8-.3.8-.6m-41.7-3c.4.1.7-.2.8-.6.1-.4-.2-.7-.6-.8-.4-.1-.7.2-.8.6 0 .4.3.7.6.8m47.4 9.2c.4.1.7-.2.8-.5.1-.4-.2-.7-.6-.7-.4-.1-.7.2-.8.5 0 .3.3.7.6.7M27 41.6c-.4-.1-.7.2-.8.6-.1.4.2.7.6.8.4.1.7-.2.8-.6 0-.4-.3-.8-.6-.8m20.1 2.1c-.4-.1-.7.2-.8.5-.1.4.2.7.6.7s.7-.2.8-.5c0-.3-.3-.6-.6-.7m-18.7-5c-.4-.1-.7.2-.8.6-.1.4.2.7.6.8.4.1.7-.2.8-.6 0-.4-.2-.7-.6-.8m24.4 5.7c-.4-.1-.7.2-.8.5-.1.4.2.7.6.7.4.1.7-.2.8-.5 0-.3-.2-.6-.6-.7m-.9-5.8c.4.1.7-.2.8-.6.1-.4-.2-.7-.6-.8-.4-.1-.7.2-.8.6 0 .4.2.7.6.8m-33.6.8c-.4-.1-.7.2-.8.6-.1.4.2.7.6.8.4.1.7-.2.8-.6.1-.4-.2-.7-.6-.8m35.9 2.9c-.4-.1-.7.2-.8.5-.1.4.2.7.6.7.4.1.7-.2.8-.5 0-.3-.2-.6-.6-.7m-38.7-7.2c-.4-.1-.7.2-.8.6-.1.4.2.7.6.8.4.1.7-.2.8-.6 0-.4-.3-.7-.6-.8m17.8 3.8 1.9-2.4h-1.5c-.1 0-.1-.1-.1-.1v-.1l2-2.1h-1c-.1 0-.1-.1-.1-.1V34l2.4-3c.1-.1.3-.2.4 0l2.4 3v.2h-1.1l2 2.1v.2H39l1.9 2.4c.1.1 0 .2 0 .2H37.6v2c0 .2-.1.3-.3.3h-.6c-.2 0-.3-.1-.3-.3v-2h-3.2c-.1 0-.2-.1-.2-.2.3.1.3 0 .3 0M59.2 36l1.9-2.4h-1.5c-.1 0-.1-.1-.1-.1v-.1l2-2.1h-1c-.1 0-.1-.1-.1-.1v-.1l2.4-3c.1-.1.3-.2.4 0l2.4 3v.2h-1.1l2 2.1v.2h-1.6L67 36c.1.1 0 .2 0 .2H63.7v2c0 .2-.1.3-.3.3h-.6c-.2 0-.3-.1-.3-.3v-2h-3.2c-.1 0-.2-.1-.2-.2.1.1.1.1.1 0" transform="translate(0 40)"/><path class="st0" d="m228 342.4 1.9-2.7h-1.5c-.1 0-.1-.1-.1-.1v-.1l2.1-2.4h-1c-.1 0-.1-.1-.1-.2v-.1l2.5-3.3c.1-.2.3-.2.5 0l2.5 3.3v.2h-1.1l2.1 2.4v.2h-1.6l1.9 2.7c.1.1 0 .2 0 .3H232.8v2.3c0 .2-.1.4-.3.4h-.6c-.2 0-.3-.2-.3-.4v-2.3h-3.2c-.1 0-.2-.1-.2-.2-.2.1-.2.1-.2 0M95.2-.6l-.6 1-.5-1-.4.2.7 1.2-5.6 10H87v.6h15v-.6h-1.5L95 .9l.7-1.2-.5-.3zm-.6 7.2 2.4 4.3h-4.8l2.4-4.3zM324.1 347.1c-.1-.7-.6-1.5-1.1-2.3-.3-.4-.9-.6-.8-1.3.1-.3.2-.5.4-.8 1 .1 2.9 1.5 3.5 1.7 2.1.6 5.3 2.1 5.9 2.2.5.1 2 .1 1.9-.2-.3-.8-1-1.5-1.7-2.4-.7-.8-1.6-1.4-1.9-2.2-.3-1.1-.4-2.7.7-3.8.5-.5.1.9 0 1.5-.3 2 1.1 3.1 2 3.7-.7-2-.4-4.8 1.6-6.4.9-.5-.6 1.5-.9 3.2-.1 1 .3 2.4.6 3.3.4 1 .7 2.3 1.8 2.5.2-1.4-.6-3-.1-4.5.4-1.3 1-1.9 2.2-2.4.5-.1.4.3-.1.8-1.6 1.5-1.4 3.7-.5 5.1 1.9-1.1 1.8-3.7 2.8-5.9.4-.8.9-1.5 1.4-2.1.6-.7 1-1.9 1.6-1.7.3.1-2.4 3.7-2 4 .4.4 1.2-1.5 2.1-1.6.5.7-5 3.9-2.3 6.3.1-.3.1-.6.4-.7.5-.2.2.6.1.9 2.1.5 3.3.9 4.7-.6.4-.4.7-1.4 1.3-.9.1.1-.7 1.6-1.5 2.4-1.2.8-3.1.4-4.7.6-.3.9-.6 2-.5 2.7 1.7 1.5 5.9 2.9 7.3 2.1 2.3-1.6 4.3-6.3 5.5-7.2.1 0 .2.1.1.2-1.3 2.9-2.6 6.1-4.5 7.9 3.2.5 5.1.7 6.9-1.5 1.2-1.4 2.1-4.4 3.2-4.5.5-.1-1.4 2-1.2 3.1.1.6 3.2-3.3 3.3-2.7 0 .4-1.4 2.4-2.4 3.9-.3.5-1.6 1.5-1.4 1.7 2.3 1.4 4.3-2 4.8-2.2.7-.2-1.1 3.3-2.9 3.7-.9.2-2.2-.2-3.4-.1-1.9.2-2.3.8-4.3.6-1.7-.1-3.3-.7-5.3-1.1-.7-.1-1.6-.1-2.3-.3-1.4-.4-2.6-1.5-4-1.5-.2 0-.3 0-.4.1 0 .5.7.4.5 1-.3.4-.7.6-1.1.8-.4.2-1 .2-1.2.6 1.9.6 3.8 2.1 6 2.3.8.1 1.9-.2 3.1 0 .8.2 1.8.9 2.4 1.2.6.3 3 1.2 3.6 1.4 2.1.6 4.7 1.3 7.1 1.5 3.4.2 6.3-1.1 9.5-1.1 2.1 0 3.5.3 4.9.9 1.6.7 2.7 1.5 3.6 3 1 1.7 2.4 4.7 2.4 6.1 0 1-.4 2.5-.9 2.7-.5.2-.2-1.3-.9-.4-.8.9-1 2.3-.7 3.3.5 1.5.8 3 1.6 4 1.2 1.4 2.7 2.2 3.6 3.7-.2 2.5.3 4.5.2 6.8-.1 2.8.1 5 1 6.9-.3.2-.9.1-1 .4-.1 1.3-.1 2.2-.2 3.2-.6 1.1-2.9 2-3.7.5.8-2.8 1.7-5.6 1.6-8.8 0-2.1-.7-4.5-1.4-6-.3-.6-.5-1.6-.9-1.9-.9-.7-1.5-1.6-2.2-2.4-.9-.9-1.1-1.5-2.2-2.1.3 1 .2 2.1.3 3.2.1 1.1.3 2.1.5 3-.4.8-1.1 1.4-1.6 1.9-.7.7-1 1.5-1.5 2.4-.3.6-.7 1.1-1 1.6-.4.9-.6 1.9-.9 2.7-.4.9-.7 1.6-1.3 2.3-.5.2-1.2 0-1.5.4-.3.5-.2 1.1-.5 1.5-.7 1.3-3 1.3-4.6.4.3-.8 1.2-1.1 1.4-2.1 1-.4 1.7-1.1 1.9-2.3 1.6-1.6 3.3-3.5 4.2-5.8.4-.9.8-1.9.8-2.7 0-.7-.4-1.5-.7-2.2-.6-1.3-1.3-2.4-1.9-3.4-.4-.9-.8-1.8-1.4-2.5-1.3-.9-2.5.3-3.6.5-.5 0-.1-.7-.6-.8-2.8 1-6.6 2.1-10.5 1.5-1-.1-2-.5-3.2-.6-.3 1.3-.6 2.7-.8 4.1-.3 2.1-.8 4.4-.8 6.5 0 2.4.2 4.8.4 7.2-.2.3-.8.3-.8.8s-.1 1.1 0 1.5c-.6.6-2.2.4-3.2.1.2-.9.6-1.6.9-2.4-.2-.3-.1-.6-.1-1 0-1.7.8-3.3.5-5.1 0-.1-.2-.3-.2-.4-.2-.6-.3-1-.4-1.5-.2-.7.5-4.4.4-5.2-.4 2-2.3 7.3-2.7 9.6-.2 1.3-.2 2.5-.3 3.9-.2 0-.2.4-.2.6-.7.2-.7 1.1-1.3 1.1-.5.1-2.1.1-2.8-.4.4-1 1-1.8 1.3-2.8.7-1.8.8-3.9 1.2-5.9.2-1.2.3-2.6.6-3.9.2-.6.7-1.1 1-1.8.9-2.1.8-4.7 1.1-6.9-1.3-.6-1.7-2-2.8-2.8-.4 0-.7-.1-1.1-.1-.4-.2-.6-.5-1.1-.3-.2-.4-.5-.8-1-.6-.1-.3-.3-.5-.4-.9-.5 0-.4.1-.7-.2 0-.4-.3-.7-.3-1.1-.4.1-.3-.2-.5-.3-.1-.2-.1-.5-.2-.6.1-.3-.5-.1-.3-.5-.2-.3-.2-.9-.4-1.1-.2.1 0 .6-.3.6-.3-1.1-.6-1.9-1.5-2.5-.1-2.4-1.8-3.9-2-6.3-.9-1.4-2.7-1.9-3.5-3.4-.3-.5-.4-1.1-.6-1.3-1.1-1.7-2.3-3.9-3.5-5.4-.5-.2-.9-.6-1-1.1-.2-.4-.5-1.4 0-1.7 1.1 0 1.6 1.6 2.5 1.6zM319.2 68.4l-.6 1-.5-1-.4.2.7 1.2-5.6 10H311v.6h15v-.6h-1.5l-5.5-9.9.7-1.2-.5-.3zm-.6 7.2 2.4 4.3h-4.8l2.4-4.3z"/><g><path class="st0" d="M26.2 5.4c-.1-.4-.5-.5-.9-.4-.4.1-.6.6-.4.9.1.4.6.6.9.4.4-.1.6-.5.4-.9" transform="rotate(180 185.01 105.5)"/><path class="st0" d="M24.4 6.4c.4-.1.5-.6.4-.9-.1-.5-.6-.6-.9-.5-.4.1-.5.6-.4.9.1.4.5.6.9.5m1.2-4.1c.1.4.6.6.9.4.4-.1.5-.6.4-.9-.1-.4-.6-.6-.9-.4-.3.1-.5.6-.4.9m-4.6.5c-.4.1-.5.6-.4.9.1.4.6.6.9.4.4-.1.5-.6.4-.9-.1-.3-.5-.5-.9-.4m15.8-1.4c-.4.1-.6.6-.4.9.1.4.6.6.9.4.4-.1.6-.6.4-.9-.1-.4-.5-.5-.9-.4m-16 7.1c.4-.1.5-.6.4-.9-.1-.4-.6-.6-.9-.4-.4.1-.5.6-.4.9.1.4.5.6.9.4M28.9.7c-.4.1-.6.6-.4.9.1.4.6.6.9.4.4-.1.5-.6.4-.9-.1-.4-.5-.6-.9-.4m11 1.1c-.1-.4-.6-.6-.9-.4-.4.1-.5.6-.4.9.1.4.6.6.9.4.3-.1.5-.5.4-.9M32 3.3c-.1-.4-.6-.6-.9-.4-.4.1-.5.6-.4.9s.6.6.9.4c.3-.2.5-.6.4-.9m4.8 3.9c-.4.1-.5.6-.4.9.1.4.6.6.9.4.4-.1.5-.6.4-.9-.1-.4-.5-.6-.9-.4M26 10.8c-.4.1-.5.6-.4.9.1.4.6.6.9.4.4-.1.5-.6.4-.9-.1-.4-.5-.6-.9-.4M5.9 20.9c-.4.1-.6.6-.4.9.1.4.6.6.9.4.4-.1.6-.6.4-.9-.1-.4-.5-.6-.9-.4" transform="rotate(180 185.01 105.5)"/><g transform="rotate(180 155.227 104.779)"><defs><filter id="Adobe_OpacityMaskFilter" filterUnits="userSpaceOnUse"><feColorMatrix values="1 0 0 0 0 0 1 0 0 0 0 0 1 0 0 0 0 0 1 0"/></filter></defs><mask maskUnits="userSpaceOnUse" id="deer-b_00000037685691758059151810000010899270725016203961_"><g style="filter:url(#Adobe_OpacityMaskFilter)"><path id="deer-a_00000026875589242043464220000007161168326773614477_" class="st0" d="M-1 .6H.4v1.5H-1z"/></g></mask><path d="M-.5.7c-.4.1-.5.6-.4.9.1.4.5.6.9.4.4-.1.5-.6.4-.9S-.2.6-.5.7" style="mask:url(#deer-b_00000037685691758059151810000010899270725016203961_);fill-rule:evenodd;clip-rule:evenodd;fill:#fff"/></g><path class="st0" d="M13.1 18c-.4.1-.5.6-.4.9.1.4.6.6.9.4.4-.1.6-.6.4-.9-.1-.4-.5-.5-.9-.4m38.8-7.9c-.4.1-.5.6-.4.9.1.4.6.5.9.4.4-.1.5-.6.4-.9-.2-.4-.6-.6-.9-.4m-30 .4c-.1-.4-.6-.6-.9-.4-.4.1-.5.6-.4.9.1.4.6.6.9.4.4-.1.6-.6.4-.9m14.9 5.3c-.4.1-.5.6-.4.9.1.4.6.6.9.4.4-.1.5-.6.4-.9-.1-.3-.5-.5-.9-.4M30.5 9c-.1-.4-.6-.6-.9-.4-.4.1-.5.6-.4.9.1.4.6.6.9.4.4-.1.6-.5.4-.9M18.1 24.5c-.4.1-.5.6-.4.9.1.4.6.6.9.4s.5-.6.4-.9c-.1-.4-.5-.6-.9-.4M44.7 1.4c-.4.1-.5.6-.4.9.1.4.6.5.9.4s.5-.6.4-.9c-.1-.4-.5-.5-.9-.4M5.9 24.5c-.4.1-.5.6-.4.9.1.4.6.6.9.4.4-.1.5-.6.4-.9-.1-.4-.5-.6-.9-.4M34.6 5.7c-.4.1-.5.6-.4.9.1.4.6.6.9.4.4-.1.6-.6.4-.9-.1-.3-.5-.5-.9-.4M3.3 24.9c-.1-.4-.6-.6-.9-.4-.4.1-.6.6-.4.9.1.4.6.6.9.4s.5-.5.4-.9M41.8 7.2c-.4.1-.5.6-.4.9.1.4.6.5.9.4.4-.1.5-.6.4-.9-.1-.4-.5-.6-.9-.4m-18.4 5.4c-.1-.4-.6-.6-.9-.4-.4.1-.6.6-.4.9.1.4.6.6.9.4.3-.1.5-.5.4-.9m9.1 6.8c-.4.1-.5.6-.4.9.1.4.6.6.9.4s.5-.6.4-.9c-.1-.3-.5-.5-.9-.4m2.9-8.6c-.4.1-.5.6-.4.9.1.4.6.6.9.4.4-.1.6-.6.4-.9-.2-.4-.6-.6-.9-.4m-30.2 18c-.4.1-.5.6-.4.9.1.4.6.6.9.4.4-.1.5-.6.4-.9-.1-.3-.5-.5-.9-.4M55.5 3.6c-.4.1-.5.6-.4.9.1.4.5.5.9.4.4-.1.5-.6.4-.9-.2-.4-.6-.6-.9-.4M13.8 22.3c-.4.1-.5.6-.4.9.1.4.6.6.9.4s.5-.6.4-.9c-.1-.3-.5-.5-.9-.4M52.6 3.6c-.4.1-.5.6-.4.9.1.4.6.5.9.4.4-.1.5-.6.4-.9-.1-.4-.6-.6-.9-.4M58.3 5c-.4.1-.5.6-.4.9.1.4.6.5.9.4.4-.1.5-.6.4-.9-.1-.3-.5-.5-.9-.4M14 14.8c-.1-.4-.6-.6-.9-.4-.4.1-.6.6-.4.9.1.4.6.6.9.4.4-.1.6-.5.4-.9m10.6-.4c-.4.1-.6.6-.4.9.1.4.6.6.9.4.4-.1.6-.6.4-.9-.1-.4-.5-.6-.9-.4m-13.4 1.1c-.1-.4-.6-.6-.9-.4-.4.1-.6.6-.4.9.1.4.6.6.9.4.3-.1.5-.5.4-.9m-9.8 6c.4-.1.5-.6.4-.9-.1-.4-.6-.6-.9-.4-.4.1-.6.6-.4.9.1.4.6.6.9.4" transform="rotate(180 185.01 105.5)"/><g transform="rotate(180 155.945 105.5)"><defs><filter id="Adobe_OpacityMaskFilter_00000140725588744638988480000018382300430193009554_" filterUnits="userSpaceOnUse"><feColorMatrix values="1 0 0 0 0 0 1 0 0 0 0 0 1 0 0 0 0 0 1 0"/></filter></defs><mask maskUnits="userSpaceOnUse" id="deer-d_00000166659244632023480230000010209180188031804306_"><g style="filter:url(#Adobe_OpacityMaskFilter_00000140725588744638988480000018382300430193009554_)"><path id="deer-c_00000144339949700225008000000013455282978027587210_" class="st0" d="M-1 .6H.5v1.5H-1z"/></g></mask><path d="M0 2c.4-.1.5-.6.4-.9C.3.7-.2.5-.5.7s-.5.6-.4.9c.1.4.5.5.9.4" style="mask:url(#deer-d_00000166659244632023480230000010209180188031804306_);fill-rule:evenodd;clip-rule:evenodd;fill:#fff"/></g><path class="st0" d="M31.1 12.2c-.4.1-.6.6-.4.9.1.4.6.6.9.4.4-.1.6-.6.4-.9-.2-.3-.6-.5-.9-.4M54.7 1.4c-.4.1-.5.6-.4.9.1.4.6.5.9.4.4-.1.5-.6.4-.9-.1-.3-.5-.5-.9-.4M21 15.1c-.4.1-.6.6-.4.9.1.4.6.6.9.4.4-.1.6-.6.4-.9-.1-.4-.5-.5-.9-.4m-5.7-2.9c-.4.1-.6.6-.4.9.1.4.6.6.9.4.4-.1.6-.6.4-.9-.2-.3-.6-.5-.9-.4m21.4 53.6c-.3-.2-.7-.1-.9.2-.2.3-.1.7.2.9.3.2.7.1.9-.2.2-.4.1-.7-.2-.9m-10.9-8.5c-.2.3-.1.7.2.9.3.2.7.1.9-.2.2-.3.1-.7-.2-.9-.4-.2-.7-.1-.9.2M36 61.8c.3.2.7.1.9-.2.2-.3.1-.7-.2-.9-.3-.2-.7-.1-.9.2-.2.3-.1.7.2.9m-4.3-4.7c-.3-.2-.7-.1-.9.2-.2.3-.1.7.2.9.3.2.7.1.9-.2.1-.3 0-.7-.2-.9" transform="rotate(180 185.01 105.5)"/><g transform="rotate(180 185.01 87.459)"><defs><filter id="Adobe_OpacityMaskFilter_00000109720030583944792850000015730519217178542214_" filterUnits="userSpaceOnUse"><feColorMatrix values="1 0 0 0 0 0 1 0 0 0 0 0 1 0 0 0 0 0 1 0"/></filter></defs><mask maskUnits="userSpaceOnUse" id="deer-f_00000037693667828925940190000002442163333942573185_"><g style="filter:url(#Adobe_OpacityMaskFilter_00000109720030583944792850000015730519217178542214_)"><path id="deer-e_00000065074803596428956800000004818526094083973514_" class="st0" d="M-.9.6H.4v1.5H-.9z"/></g></mask><path d="M-.6 1.8c.2.2.6.1.8-.1.1-.3.1-.7-.2-.8C-.3.7-.6.8-.8 1c-.2.3-.1.7.2.8" style="mask:url(#deer-f_00000037693667828925940190000002442163333942573185_);fill-rule:evenodd;clip-rule:evenodd;fill:#fff"/></g><path class="st0" d="M38.8 62.9c-.3-.2-.7-.1-.9.2-.2.3-.1.7.2.9.3.2.7.1.9-.2.2-.3.1-.7-.2-.9m-20-10.5c.3.2.7.1.8-.2.2-.3.1-.7-.2-.8-.3-.2-.7-.1-.8.2-.2.2-.1.6.2.8m10 9c-.3-.2-.7-.1-.9.2-.2.3-.1.7.2.9.3.2.7.1.9-.2.2-.3.1-.7-.2-.9m-5-5.7c-.3-.2-.7-.1-.9.2-.2.3-.1.7.2.9.3.2.7.1.9-.2.1-.4 0-.7-.2-.9m18.7 11.8c.3.2.7.1.9-.2.2-.3.1-.7-.2-.9-.3-.2-.7-.1-.9.2-.2.4-.1.8.2.9m-2.9-13.7c.3.2.7.1.9-.2.2-.3.1-.7-.2-.9-.3-.2-.7-.1-.9.2-.2.4-.1.7.2.9m7.2 15.9c.3.2.7.1.9-.2.2-.3.1-.7-.2-.9-.3-.2-.7-.1-.9.2-.2.3-.1.7.2.9M25.1 52.3c-.2.3-.1.7.2.9.3.2.7.1.9-.2.2-.3.1-.7-.2-.9-.4-.2-.8-.1-.9.2m-3.5 4.8c-.3-.2-.7-.1-.8.2-.2.3-.1.7.2.9.3.2.7.1.9-.2.1-.3 0-.7-.3-.9m.2-2c.2-.3.1-.7-.2-.8-.3-.2-.7-.1-.8.2-.2.3-.1.7.2.8.2.2.6.1.8-.2m-11-1.6c-.3-.2-.7-.1-.8.2-.2.3-.1.6.2.8.3.2.7.1.8-.2.2-.2.1-.6-.2-.8m7.2.7c-.3-.2-.7-.1-.8.2-.2.3-.1.7.2.8.3.2.7.1.8-.2.2-.2.1-.6-.2-.8M8 52.8c-.3-.2-.6-.1-.8.2-.2.3-.1.6.2.8.2.2.6.1.7-.2.2-.2.1-.6-.1-.8m20.8 6.1c.3.2.7.1.9-.2.2-.3.1-.7-.2-.9-.3-.2-.7-.1-.9.2-.1.3-.1.7.2.9m-16.6-8.8c-.2.3-.1.6.2.8.3.2.6.1.8-.2.2-.3.1-.6-.2-.8-.3-.2-.7-.1-.8.2m15.9 4.5c.3.2.7.1.9-.2.2-.3.1-.7-.2-.9-.3-.2-.7-.1-.9.2-.2.3-.1.7.2.9M2.3 34.3c.3.2.6.1.8-.2.2-.3.1-.6-.2-.8-.3-.2-.6-.1-.8.2-.2.3-.1.6.2.8m17.9 16.6c.3.2.7.1.8-.2.2-.3.1-.7-.2-.8-.3-.2-.7-.1-.8.2-.1.3-.1.7.2.8M3 38.7c.3.2.6.1.8-.2.2-.3.1-.6-.2-.8-.3-.2-.6-.1-.8.2-.1.2-.1.6.2.8m22.2 7.2c.3.2.7.1.9-.2.2-.3.1-.7-.2-.9-.3-.2-.7-.1-.9.2-.1.3 0 .7.2.9M8 40.8c.3.2.6.1.8-.2.2-.2.1-.6-.1-.8-.3-.1-.7-.1-.8.2-.2.3-.1.6.1.8m20.1 5.1c.3.2.7.1.9-.2.2-.3.1-.7-.2-.9-.3-.2-.7-.1-.9.2-.2.3-.1.7.2.9m-7.2-5.1c.3.2.6.1.8-.2.2-.3.1-.6-.2-.8-.3-.2-.6-.1-.8.2-.1.3 0 .6.2.8m7.9 9.4c.3.2.7.1.9-.2.2-.3.1-.7-.2-.9-.3-.2-.7-.1-.9.2-.1.4-.1.7.2.9m-2.3-2.3c-.2.3-.1.7.2.9.3.2.7.1.9-.2.2-.3.1-.7-.2-.9-.3-.1-.7-.1-.9.2m-5.6.9c.3.2.7.1.8-.2.2-.3.1-.7-.2-.8-.3-.2-.7-.1-.8.2-.1.2 0 .6.2.8m-5 14.8c-.3-.2-.7-.1-.8.2-.2.3-.1.7.2.8.3.2.7.1.8-.2.1-.2 0-.6-.2-.8M9.5 50.2c.3.2.6.1.8-.2.2-.3.1-.6-.2-.8-.3-.2-.6-.1-.8.2-.2.3-.1.6.2.8M8 48.5c-.3-.2-.6-.1-.8.2-.2.2-.2.6.1.8.3.2.6.1.8-.2.2-.3.1-.6-.1-.8" transform="rotate(180 185.01 105.5)"/><g transform="rotate(180 164.916 71.222)"><defs><filter id="Adobe_OpacityMaskFilter_00000094597477882531141340000003933989532509119931_" filterUnits="userSpaceOnUse"><feColorMatrix values="1 0 0 0 0 0 1 0 0 0 0 0 1 0 0 0 0 0 1 0"/></filter></defs><mask maskUnits="userSpaceOnUse" id="deer-h_00000142889255449807471870000015214351020739088555_"><g style="filter:url(#Adobe_OpacityMaskFilter_00000094597477882531141340000003933989532509119931_)"><path id="deer-g_00000089568493131819947880000010762915908056096182_" class="st0" d="M-1 .7H.5V2H-1z"/></g></mask><path d="M-.6 1.9c.3.2.7.1.9-.2S.4 1 .1.8C-.2.6-.6.7-.8 1c-.2.3-.1.7.2.9" style="mask:url(#deer-h_00000142889255449807471870000015214351020739088555_);fill-rule:evenodd;clip-rule:evenodd;fill:#fff"/></g><path class="st0" d="M16.6 51.4c-.3-.2-.7-.1-.8.2-.2.3-.1.7.2.8.3.2.7.1.8-.2.1-.3.1-.7-.2-.8m6.5 3.1c.3.2.7.1.9-.2.2-.3.1-.7-.2-.9-.3-.2-.7-.1-.9.2-.2.4-.1.8.2.9m9.3.8c.3.2.7.1.9-.2.2-.3.1-.7-.2-.9-.3-.2-.7-.1-.9.2-.2.3-.1.7.2.9m5.6 6.3c-.2.3-.1.7.2.9.3.2.7.1.9-.2.2-.3.1-.7-.2-.9-.4-.1-.7-.1-.9.2m-4.9-7.8c.3.2.7.1.9-.2.2-.3.1-.7-.2-.9-.3-.2-.7-.1-.9.2-.1.4-.1.7.2.9m-9.3-6.5c.3.2.7.1.8-.2.2-.3.1-.7-.2-.9-.3-.2-.7-.1-.8.2-.2.4-.1.7.2.9m19.4 13.8c.3.2.7.1.9-.2.2-.3.1-.7-.2-.9-.3-.2-.7-.1-.9.2-.2.3-.1.7.2.9M25.9 50.6c-.3-.2-.7-.1-.9.2-.2.3-.1.7.2.9.3.2.7.1.9-.2.2-.3.1-.7-.2-.9m-3.7.9c-.2.3-.1.7.2.9.3.2.7.1.9-.2.2-.3.1-.7-.2-.8-.3-.2-.7-.2-.9.1M1.6 40.1c.3.2.6.1.8-.2.2-.3.1-.6-.2-.8-.3-.2-.6-.1-.8.2-.2.3-.1.6.2.8m31.5 18.8c.3.2.7.1.9-.2.2-.3.1-.7-.2-.9-.3-.2-.7-.1-.9.2-.1.3-.1.7.2.9M1.4 35.7c-.2.3-.1.6.2.8.3.2.6.1.8-.2.2-.3.1-.6-.2-.8-.3-.2-.6-.1-.8.2" transform="rotate(180 185.01 105.5)"/></g></svg>